<?xml version="1.0" standalone="no"?>
<!DOCTYPE svg PUBLIC "-//W3C//DTD SVG 20010904//EN"
 "http://www.w3.org/TR/2001/REC-SVG-20010904/DTD/svg10.dtd">
<svg version="1.0" xmlns="http://www.w3.org/2000/svg"
 width="830.000000pt" height="809.000000pt" viewBox="0 0 830.000000 809.000000"
 preserveAspectRatio="xMidYMid meet">

<g transform="translate(0.000000,819.000000) scale(0.100000,-0.100000)"
fill="#000000" stroke="none">
<path d="M1390 7772 c-295 -35 -546 -153 -759 -357 -204 -197 -331 -424 -387
-695 -67 -321 1 -683 178 -943 129 -190 259 -299 718 -604 183 -121 419 -322
621 -529 331 -339 606 -750 791 -1184 117 -273 184 -474 259 -785 35 -146 88
-494 113 -750 9 -88 23 -230 31 -315 34 -340 117 -557 311 -811 69 -91 235
-228 345 -285 92 -47 307 -119 369 -123 8 0 58 -5 110 -9 52 -5 113 -8 135 -6
169 12 219 18 294 35 347 83 625 310 791 647 83 169 131 362 150 602 6 69 15
163 20 210 5 47 12 110 16 140 78 769 266 1354 631 1965 40 67 45 75 137 204
144 203 236 313 425 505 215 219 455 412 752 603 70 45 135 88 145 96 11 9 64
51 119 94 195 154 330 335 409 545 22 61 32 94 66 243 5 22 8 121 6 220 -2
146 -7 196 -25 265 -72 275 -174 456 -365 646 -194 193 -400 304 -666 358
-108 22 -353 22 -455 1 -213 -44 -391 -128 -755 -355 -152 -95 -183 -113 -315
-181 l-130 -67 -5 -1243 -6 -1244 -28 -100 c-122 -444 -444 -781 -866 -909
-358 -107 -762 -48 -1064 157 -277 188 -466 464 -543 797 -16 69 -18 182 -23
1310 l-5 1234 -100 51 c-127 63 -186 97 -360 205 -349 217 -521 298 -724 342
-87 19 -280 30 -361 20z"/>
<path d="M4100 7120 c-313 -36 -599 -271 -694 -570 -45 -143 -47 -200 -43
-1020 l3 -775 26 -95 c31 -115 57 -173 119 -265 118 -176 300 -301 509 -350
87 -20 280 -19 373 1 40 8 123 40 187 71 106 52 123 64 216 158 91 91 107 112
152 206 100 205 95 157 99 1009 4 816 -1 930 -43 1055 -131 388 -499 622 -904
575z"/>
</g>
</svg>
